<mxfile host="app.diagrams.net" modified="2020-11-24T22:23:49.370Z" agent="5.0 (Macintosh; Intel Mac OS X 10_15_7) AppleWebKit/605.1.15 (KHTML, like Gecko) Version/14.0.1 Safari/605.1.15" etag="mtImjgkFH6nttX5vPS_3" version="13.10.1" type="github">
  <diagram id="prtHgNgQTEPvFCAcTncT" name="Page-1">
    <mxGraphModel dx="830" dy="603" grid="1" gridSize="10" guides="1" tooltips="1" connect="1" arrows="1" fold="1" page="1" pageScale="1" pageWidth="827" pageHeight="1169" math="0" shadow="0">
      <root>
        <mxCell id="0" />
        <mxCell id="1" parent="0" />
        <mxCell id="dNxyNK7c78bLwvsdeMH5-19" value="Interface" style="swimlane;html=1;childLayout=stackLayout;resizeParent=1;resizeParentMax=0;horizontal=0;startSize=20;horizontalStack=0;" parent="1" vertex="1">
          <mxGeometry x="10" y="10" width="200" height="470" as="geometry" />
        </mxCell>
        <mxCell id="dNxyNK7c78bLwvsdeMH5-21" value="Controller" style="swimlane;html=1;startSize=20;horizontal=0;" parent="dNxyNK7c78bLwvsdeMH5-19" vertex="1">
          <mxGeometry x="20" width="180" height="120" as="geometry" />
        </mxCell>
        <mxCell id="yh2gP78F4HSjmfVCLbVl-8" value="/" style="shape=internalStorage;whiteSpace=wrap;html=1;backgroundOutline=1;dx=5;dy=10;" vertex="1" parent="dNxyNK7c78bLwvsdeMH5-21">
          <mxGeometry x="30" y="10" width="65" height="50" as="geometry" />
        </mxCell>
        <mxCell id="dNxyNK7c78bLwvsdeMH5-22" value="View" style="swimlane;html=1;startSize=20;horizontal=0;" parent="dNxyNK7c78bLwvsdeMH5-19" vertex="1">
          <mxGeometry x="20" y="120" width="180" height="110" as="geometry" />
        </mxCell>
        <mxCell id="yh2gP78F4HSjmfVCLbVl-4" value="Index.html" style="shape=document;whiteSpace=wrap;html=1;boundedLbl=1;" vertex="1" parent="dNxyNK7c78bLwvsdeMH5-22">
          <mxGeometry x="40" y="20" width="90" height="50" as="geometry" />
        </mxCell>
        <mxCell id="yh2gP78F4HSjmfVCLbVl-9" value="" style="endArrow=classic;html=1;exitX=0.5;exitY=1;exitDx=0;exitDy=0;entryX=0.25;entryY=0;entryDx=0;entryDy=0;" edge="1" parent="dNxyNK7c78bLwvsdeMH5-19" source="yh2gP78F4HSjmfVCLbVl-8" target="yh2gP78F4HSjmfVCLbVl-4">
          <mxGeometry width="50" height="50" relative="1" as="geometry">
            <mxPoint x="190" y="260" as="sourcePoint" />
            <mxPoint x="240" y="210" as="targetPoint" />
          </mxGeometry>
        </mxCell>
        <mxCell id="yh2gP78F4HSjmfVCLbVl-10" value="React" style="swimlane;startSize=20;horizontal=0;" vertex="1" parent="dNxyNK7c78bLwvsdeMH5-19">
          <mxGeometry x="20" y="230" width="180" height="120" as="geometry" />
        </mxCell>
        <mxCell id="yh2gP78F4HSjmfVCLbVl-12" value="bundle.js" style="ellipse;shape=cloud;whiteSpace=wrap;html=1;" vertex="1" parent="yh2gP78F4HSjmfVCLbVl-10">
          <mxGeometry x="40" y="20" width="105" height="60" as="geometry" />
        </mxCell>
        <mxCell id="yh2gP78F4HSjmfVCLbVl-13" value="" style="endArrow=classic;html=1;exitX=0.222;exitY=1.02;exitDx=0;exitDy=0;exitPerimeter=0;entryX=0.25;entryY=0.25;entryDx=0;entryDy=0;entryPerimeter=0;" edge="1" parent="dNxyNK7c78bLwvsdeMH5-19" source="yh2gP78F4HSjmfVCLbVl-4" target="yh2gP78F4HSjmfVCLbVl-12">
          <mxGeometry width="50" height="50" relative="1" as="geometry">
            <mxPoint x="100" y="560" as="sourcePoint" />
            <mxPoint x="150" y="510" as="targetPoint" />
          </mxGeometry>
        </mxCell>
        <mxCell id="yh2gP78F4HSjmfVCLbVl-14" value="CSS" style="swimlane;startSize=20;horizontal=0;" vertex="1" parent="dNxyNK7c78bLwvsdeMH5-19">
          <mxGeometry x="20" y="350" width="180" height="120" as="geometry" />
        </mxCell>
        <mxCell id="yh2gP78F4HSjmfVCLbVl-15" value="main.css" style="ellipse;shape=cloud;whiteSpace=wrap;html=1;" vertex="1" parent="yh2gP78F4HSjmfVCLbVl-14">
          <mxGeometry x="23" y="20" width="97" height="50" as="geometry" />
        </mxCell>
        <mxCell id="yh2gP78F4HSjmfVCLbVl-16" value="" style="endArrow=classic;html=1;exitX=0.078;exitY=0.9;exitDx=0;exitDy=0;exitPerimeter=0;entryX=0.155;entryY=0.26;entryDx=0;entryDy=0;entryPerimeter=0;" edge="1" parent="dNxyNK7c78bLwvsdeMH5-19" source="yh2gP78F4HSjmfVCLbVl-4" target="yh2gP78F4HSjmfVCLbVl-15">
          <mxGeometry width="50" height="50" relative="1" as="geometry">
            <mxPoint x="150" y="560" as="sourcePoint" />
            <mxPoint x="60" y="860" as="targetPoint" />
          </mxGeometry>
        </mxCell>
        <mxCell id="yh2gP78F4HSjmfVCLbVl-17" value="Back End" style="swimlane;html=1;childLayout=stackLayout;resizeParent=1;resizeParentMax=0;horizontal=0;startSize=20;horizontalStack=0;" vertex="1" parent="1">
          <mxGeometry x="300" y="10" width="540" height="790" as="geometry" />
        </mxCell>
        <mxCell id="yh2gP78F4HSjmfVCLbVl-18" value="Application&lt;br&gt;JAVA" style="swimlane;html=1;startSize=30;horizontal=0;" vertex="1" parent="yh2gP78F4HSjmfVCLbVl-17">
          <mxGeometry x="20" width="520" height="120" as="geometry" />
        </mxCell>
        <mxCell id="yh2gP78F4HSjmfVCLbVl-42" value="application" style="shape=process;whiteSpace=wrap;html=1;backgroundOutline=1;" vertex="1" parent="yh2gP78F4HSjmfVCLbVl-18">
          <mxGeometry x="40" y="10" width="100" height="45" as="geometry" />
        </mxCell>
        <mxCell id="yh2gP78F4HSjmfVCLbVl-43" value="HomeController" style="shape=process;whiteSpace=wrap;html=1;backgroundOutline=1;" vertex="1" parent="yh2gP78F4HSjmfVCLbVl-18">
          <mxGeometry x="110" y="70" width="100" height="45" as="geometry" />
        </mxCell>
        <mxCell id="yh2gP78F4HSjmfVCLbVl-44" value="Post" style="shape=process;whiteSpace=wrap;html=1;backgroundOutline=1;" vertex="1" parent="yh2gP78F4HSjmfVCLbVl-18">
          <mxGeometry x="240" y="10" width="100" height="45" as="geometry" />
        </mxCell>
        <mxCell id="yh2gP78F4HSjmfVCLbVl-45" value="PostRepository" style="shape=process;whiteSpace=wrap;html=1;backgroundOutline=1;" vertex="1" parent="yh2gP78F4HSjmfVCLbVl-18">
          <mxGeometry x="290" y="70" width="110" height="45" as="geometry" />
        </mxCell>
        <mxCell id="yh2gP78F4HSjmfVCLbVl-31" value="JavaScript" style="swimlane;startSize=30;horizontal=0;" vertex="1" parent="yh2gP78F4HSjmfVCLbVl-17">
          <mxGeometry x="20" y="120" width="520" height="200" as="geometry" />
        </mxCell>
        <mxCell id="yh2gP78F4HSjmfVCLbVl-32" value="app.js" style="shape=process;whiteSpace=wrap;html=1;backgroundOutline=1;" vertex="1" parent="yh2gP78F4HSjmfVCLbVl-31">
          <mxGeometry x="40" y="15" width="100" height="45" as="geometry" />
        </mxCell>
        <mxCell id="yh2gP78F4HSjmfVCLbVl-35" value="postsBuilder.js" style="shape=process;whiteSpace=wrap;html=1;backgroundOutline=1;" vertex="1" parent="yh2gP78F4HSjmfVCLbVl-31">
          <mxGeometry x="100" y="90" width="110" height="40" as="geometry" />
        </mxCell>
        <mxCell id="yh2gP78F4HSjmfVCLbVl-37" value="" style="endArrow=classic;html=1;entryX=0.25;entryY=0;entryDx=0;entryDy=0;exitX=0.86;exitY=1;exitDx=0;exitDy=0;exitPerimeter=0;" edge="1" parent="yh2gP78F4HSjmfVCLbVl-31" source="yh2gP78F4HSjmfVCLbVl-32" target="yh2gP78F4HSjmfVCLbVl-35">
          <mxGeometry width="50" height="50" relative="1" as="geometry">
            <mxPoint x="30" y="200" as="sourcePoint" />
            <mxPoint x="80" y="150" as="targetPoint" />
          </mxGeometry>
        </mxCell>
        <mxCell id="yh2gP78F4HSjmfVCLbVl-38" value="client.js" style="shape=process;whiteSpace=wrap;html=1;backgroundOutline=1;" vertex="1" parent="yh2gP78F4HSjmfVCLbVl-31">
          <mxGeometry x="380" y="15" width="120" height="45" as="geometry" />
        </mxCell>
        <mxCell id="yh2gP78F4HSjmfVCLbVl-49" value="post.js" style="shape=process;whiteSpace=wrap;html=1;backgroundOutline=1;" vertex="1" parent="yh2gP78F4HSjmfVCLbVl-31">
          <mxGeometry x="320" y="115" width="100" height="45" as="geometry" />
        </mxCell>
        <mxCell id="yh2gP78F4HSjmfVCLbVl-51" style="edgeStyle=orthogonalEdgeStyle;rounded=0;orthogonalLoop=1;jettySize=auto;html=1;exitX=0.75;exitY=1;exitDx=0;exitDy=0;entryX=0.5;entryY=0;entryDx=0;entryDy=0;" edge="1" parent="yh2gP78F4HSjmfVCLbVl-31" source="yh2gP78F4HSjmfVCLbVl-50" target="yh2gP78F4HSjmfVCLbVl-49">
          <mxGeometry relative="1" as="geometry" />
        </mxCell>
        <mxCell id="yh2gP78F4HSjmfVCLbVl-50" value="posts.js" style="shape=process;whiteSpace=wrap;html=1;backgroundOutline=1;" vertex="1" parent="yh2gP78F4HSjmfVCLbVl-31">
          <mxGeometry x="240" y="30" width="100" height="45" as="geometry" />
        </mxCell>
        <mxCell id="yh2gP78F4HSjmfVCLbVl-20" value="Spring" style="swimlane;html=1;startSize=30;horizontal=0;" vertex="1" parent="yh2gP78F4HSjmfVCLbVl-17">
          <mxGeometry x="20" y="320" width="520" height="110" as="geometry" />
        </mxCell>
        <mxCell id="yh2gP78F4HSjmfVCLbVl-46" value="" style="shape=cylinder3;whiteSpace=wrap;html=1;boundedLbl=1;backgroundOutline=1;size=15;" vertex="1" parent="yh2gP78F4HSjmfVCLbVl-20">
          <mxGeometry x="150" y="10" width="60" height="80" as="geometry" />
        </mxCell>
        <mxCell id="yh2gP78F4HSjmfVCLbVl-23" value="React" style="swimlane;startSize=30;horizontal=0;" vertex="1" parent="yh2gP78F4HSjmfVCLbVl-17">
          <mxGeometry x="20" y="430" width="520" height="120" as="geometry" />
        </mxCell>
        <mxCell id="yh2gP78F4HSjmfVCLbVl-30" value="render&lt;br&gt;engine" style="ellipse;shape=cloud;whiteSpace=wrap;html=1;" vertex="1" parent="yh2gP78F4HSjmfVCLbVl-23">
          <mxGeometry x="50" y="10" width="100" height="50" as="geometry" />
        </mxCell>
        <mxCell id="yh2gP78F4HSjmfVCLbVl-41" value="rest interceptor" style="shape=process;whiteSpace=wrap;html=1;backgroundOutline=1;" vertex="1" parent="yh2gP78F4HSjmfVCLbVl-23">
          <mxGeometry x="242" y="20" width="90" height="40" as="geometry" />
        </mxCell>
        <mxCell id="yh2gP78F4HSjmfVCLbVl-40" value="/api/" style="shape=internalStorage;whiteSpace=wrap;html=1;backgroundOutline=1;dx=10;dy=10;" vertex="1" parent="yh2gP78F4HSjmfVCLbVl-23">
          <mxGeometry x="380" y="50" width="65" height="50" as="geometry" />
        </mxCell>
        <mxCell id="yh2gP78F4HSjmfVCLbVl-53" value="" style="endArrow=classic;startArrow=classic;html=1;entryX=0;entryY=0.75;entryDx=0;entryDy=0;exitX=0.75;exitY=1;exitDx=0;exitDy=0;" edge="1" parent="yh2gP78F4HSjmfVCLbVl-23" source="yh2gP78F4HSjmfVCLbVl-41" target="yh2gP78F4HSjmfVCLbVl-40">
          <mxGeometry width="50" height="50" relative="1" as="geometry">
            <mxPoint x="90" y="-70" as="sourcePoint" />
            <mxPoint x="140" y="-120" as="targetPoint" />
          </mxGeometry>
        </mxCell>
        <mxCell id="yh2gP78F4HSjmfVCLbVl-54" value="" style="endArrow=classic;startArrow=classic;html=1;exitX=1;exitY=0;exitDx=0;exitDy=52.5;exitPerimeter=0;" edge="1" parent="yh2gP78F4HSjmfVCLbVl-23" source="yh2gP78F4HSjmfVCLbVl-46">
          <mxGeometry width="50" height="50" relative="1" as="geometry">
            <mxPoint x="200" y="80" as="sourcePoint" />
            <mxPoint x="240" y="30" as="targetPoint" />
          </mxGeometry>
        </mxCell>
        <mxCell id="yh2gP78F4HSjmfVCLbVl-26" value="Database&#xa;Postgres" style="swimlane;startSize=30;horizontal=0;" vertex="1" parent="yh2gP78F4HSjmfVCLbVl-17">
          <mxGeometry x="20" y="550" width="520" height="120" as="geometry" />
        </mxCell>
        <mxCell id="yh2gP78F4HSjmfVCLbVl-47" value="" style="shape=cylinder3;whiteSpace=wrap;html=1;boundedLbl=1;backgroundOutline=1;size=15;" vertex="1" parent="yh2gP78F4HSjmfVCLbVl-26">
          <mxGeometry x="150" y="20" width="60" height="80" as="geometry" />
        </mxCell>
        <mxCell id="yh2gP78F4HSjmfVCLbVl-34" value="" style="endArrow=classic;startArrow=classic;html=1;entryX=0.25;entryY=1;entryDx=0;entryDy=0;exitX=0.25;exitY=0.25;exitDx=0;exitDy=0;exitPerimeter=0;" edge="1" parent="yh2gP78F4HSjmfVCLbVl-17" source="yh2gP78F4HSjmfVCLbVl-30" target="yh2gP78F4HSjmfVCLbVl-32">
          <mxGeometry width="50" height="50" relative="1" as="geometry">
            <mxPoint x="50" y="320" as="sourcePoint" />
            <mxPoint x="100" y="270" as="targetPoint" />
          </mxGeometry>
        </mxCell>
        <mxCell id="yh2gP78F4HSjmfVCLbVl-39" value="bootstrap" style="swimlane;startSize=30;horizontal=0;" vertex="1" parent="yh2gP78F4HSjmfVCLbVl-17">
          <mxGeometry x="20" y="670" width="520" height="120" as="geometry" />
        </mxCell>
        <mxCell id="yh2gP78F4HSjmfVCLbVl-56" value="web pack" style="ellipse;shape=cloud;whiteSpace=wrap;html=1;" vertex="1" parent="yh2gP78F4HSjmfVCLbVl-39">
          <mxGeometry x="235" y="20" width="120" height="80" as="geometry" />
        </mxCell>
        <mxCell id="yh2gP78F4HSjmfVCLbVl-48" value="" style="endArrow=classic;startArrow=classic;html=1;entryX=0.5;entryY=1;entryDx=0;entryDy=0;entryPerimeter=0;exitX=0.5;exitY=0;exitDx=0;exitDy=0;exitPerimeter=0;" edge="1" parent="yh2gP78F4HSjmfVCLbVl-17" source="yh2gP78F4HSjmfVCLbVl-47" target="yh2gP78F4HSjmfVCLbVl-46">
          <mxGeometry width="50" height="50" relative="1" as="geometry">
            <mxPoint x="110" y="400" as="sourcePoint" />
            <mxPoint x="160" y="350" as="targetPoint" />
          </mxGeometry>
        </mxCell>
        <mxCell id="yh2gP78F4HSjmfVCLbVl-52" style="edgeStyle=orthogonalEdgeStyle;rounded=0;orthogonalLoop=1;jettySize=auto;html=1;exitX=0.25;exitY=1;exitDx=0;exitDy=0;entryX=0.25;entryY=0;entryDx=0;entryDy=0;" edge="1" parent="yh2gP78F4HSjmfVCLbVl-17" source="yh2gP78F4HSjmfVCLbVl-50" target="yh2gP78F4HSjmfVCLbVl-41">
          <mxGeometry relative="1" as="geometry" />
        </mxCell>
        <mxCell id="yh2gP78F4HSjmfVCLbVl-55" style="edgeStyle=orthogonalEdgeStyle;rounded=0;orthogonalLoop=1;jettySize=auto;html=1;exitX=0.75;exitY=1;exitDx=0;exitDy=0;entryX=1;entryY=0.25;entryDx=0;entryDy=0;" edge="1" parent="yh2gP78F4HSjmfVCLbVl-17" source="yh2gP78F4HSjmfVCLbVl-38" target="yh2gP78F4HSjmfVCLbVl-41">
          <mxGeometry relative="1" as="geometry" />
        </mxCell>
        <mxCell id="yh2gP78F4HSjmfVCLbVl-57" style="edgeStyle=orthogonalEdgeStyle;rounded=0;orthogonalLoop=1;jettySize=auto;html=1;exitX=0.25;exitY=1;exitDx=0;exitDy=0;entryX=0.25;entryY=0.25;entryDx=0;entryDy=0;entryPerimeter=0;" edge="1" parent="yh2gP78F4HSjmfVCLbVl-17" source="yh2gP78F4HSjmfVCLbVl-41" target="yh2gP78F4HSjmfVCLbVl-56">
          <mxGeometry relative="1" as="geometry" />
        </mxCell>
        <mxCell id="yh2gP78F4HSjmfVCLbVl-29" value="" style="endArrow=classic;startArrow=classic;html=1;exitX=0.875;exitY=0.5;exitDx=0;exitDy=0;exitPerimeter=0;entryX=0.07;entryY=0.4;entryDx=0;entryDy=0;entryPerimeter=0;" edge="1" parent="1" source="yh2gP78F4HSjmfVCLbVl-12" target="yh2gP78F4HSjmfVCLbVl-30">
          <mxGeometry width="50" height="50" relative="1" as="geometry">
            <mxPoint x="190" y="390" as="sourcePoint" />
            <mxPoint x="390" y="340" as="targetPoint" />
          </mxGeometry>
        </mxCell>
      </root>
    </mxGraphModel>
  </diagram>
</mxfile>
